PathFileType	4	(X/Y/Z)	/Users/itak/Documents/Research/Walk-IL/dataset/trc/00122_00007.trc
DataRate	CameraRate	NumFrames	NumMarkers	Units	OrigDataRate	OrigDataStartFrame	OrigNumFrames
100.000000	100.000000	4	53	mm	100.000000	636	727
Frame#	Time	RPSI			LPSI			L3			STRN			T10			C7			CLAV			RBAK			LBAK			LSHO			LUPA			LAEL			LAOL			LWTS			LWPS			LFRA			LIFD			LHPS			LHTS			RSHO			RUPA			RAEL			RAOL			RWTS			RWPS			RFRA			RIFD			RHTS			RHPS			RBHD			LFHD			RFHD			LBHD			LHIP			RHIP			RASI			LASI			LKNE			LTHI			LANK			LTIP			LTOE			LMT1			LMT5			LHEE			RKNE			RTHI			RANK			RTIP			RTOE			RMT1			RMT5			RHEE			
		X1	Y1	Z1	X2	Y2	Z2	X3	Y3	Z3	X4	Y4	Z4	X5	Y5	Z5	X6	Y6	Z6	X7	Y7	Z7	X8	Y8	Z8	X9	Y9	Z9	X10	Y10	Z10	X11	Y11	Z11	X12	Y12	Z12	X13	Y13	Z13	X14	Y14	Z14	X15	Y15	Z15	X16	Y16	Z16	X17	Y17	Z17	X18	Y18	Z18	X19	Y19	Z19	X20	Y20	Z20	X21	Y21	Z21	X22	Y22	Z22	X23	Y23	Z23	X24	Y24	Z24	X25	Y25	Z25	X26	Y26	Z26	X27	Y27	Z27	X28	Y28	Z28	X29	Y29	Z29	X30	Y30	Z30	X31	Y31	Z31	X32	Y32	Z32	X33	Y33	Z33	X34	Y34	Z34	X35	Y35	Z35	X36	Y36	Z36	X37	Y37	Z37	X38	Y38	Z38	X39	Y39	Z39	X40	Y40	Z40	X41	Y41	Z41	X42	Y42	Z42	X43	Y43	Z43	X44	Y44	Z44	X45	Y45	Z45	X46	Y46	Z46	X47	Y47	Z47	X48	Y48	Z48	X49	Y49	Z49	X50	Y50	Z50	X51	Y51	Z51	X52	Y52	Z52	X53	Y53	Z53	

637	6.36	-401.9249267578125	1129.507568359375	1078.662475585938	-366.5031433105469	1127.168334960938	947.0826416015625	-391.5927124023438	1161.97705078125	1010.175231933594	-188.3080749511719	1371.287963867188	1072.896118164062	-427.8533020019531	1311.355712890625	1012.789367675781	-410.9104919433594	1605.793701171875	1007.486389160156	-229.8971099853516	1504.148315429688	1059.730346679688	-473.4019470214844	1420.881469726562	1080.152465820312	-391.3248291015625	1585.683959960938	907.093994140625	-290.2397766113281	1574.655639648438	860.847412109375	-298.2073364257812	1443.703002929688	786.854248046875	-292.9431762695312	1227.008056640625	762.0026245117188	-366.8650817871094	1215.522094726562	809.2305297851562	-198.9104766845703	969.5774536132812	815.5390625	-275.9648742675781	943.0584716796875	777.5791625976562	-276.8363952636719	1110.739013671875	758.2797241210938	-191.615966796875	776.5980834960938	842.8921508789062	-247.4031829833984	867.7008666992188	782.5541381835938	-182.2662811279297	879.1513061523438	808.013671875	-397.5246276855469	1590.418090820312	1195.934448242188	-425.7268676757812	1518.122924804688	1255.643188476562	-418.5762023925781	1224.789184570312	1296.225830078125	-405.6030578613281	1217.50732421875	1200.26416015625	-219.5995483398438	1027.289672851562	1335.565307617188	-292.0602111816406	991.2160034179688	1350.25439453125	-383.1584167480469	1157.876953125	1322.273681640625	-138.2722778320312	849.458984375	1340.972900390625	-163.5030670166016	932.9580078125	1358.66259765625	-230.5889892578125	907.2896118164062	1372.718872070312	-382.2007141113281	1789.426391601562	1082.989868164062	-190.8252410888672	1838.563354492188	986.4181518554688	-220.4851989746094	1855.933837890625	1111.615966796875	-358.8698425292969	1774.851440429688	949.2821655273438	-242.1402130126953	1042.58544921875	870.1572875976562	-310.7535705566406	1042.271362304688	1230.171020507812	-218.8536529541016	1114.14990234375	1201.275268554688	-155.7858276367188	1114.063598632812	944.0504150390625	-127.2443771362305	545.573486328125	949.3623657226562	-169.7958984375	688.5172119140625	905.0161743164062	-287.0495300292969	51.86845779418945	877.9066162109375	-235.8703308105469	304.3055419921875	873.7124633789062	-102.3772048950195	61.95160675048828	1015.193725585938	-186.4223937988281	55.50967407226562	1016.833984375	-166.3346862792969	51.79977798461914	905.685302734375	-375.4632568359375	52.0112419128418	907.5929565429688	-301.1622314453125	549.1148071289062	1198.089599609375	-287.0204162597656	829.4880981445312	1229.926025390625	-352.0141296386719	28.30927085876465	1138.330078125	-322.1463623046875	414.9855651855469	1199.612182617188	-114.4482955932617	51.92104339599609	1170.663818359375	-157.1841278076172	51.90632247924805	1109.32470703125	-232.9726104736328	40.66631698608398	1205.710571289062	-386.4717102050781	34.80801391601562	1074.276977539062	
638	6.37	-400.210205078125	1129.321166992188	1079.552856445312	-364.6050415039062	1127.08251953125	948.0698852539062	-389.8135375976562	1161.712646484375	1011.140502929688	-187.0682525634766	1371.221313476562	1074.26123046875	-426.3517456054688	1311.014892578125	1013.705078125	-409.7816162109375	1605.493286132812	1008.550231933594	-228.7537231445312	1504.038940429688	1061.040893554688	-472.2435913085938	1420.500610351562	1081.018920898438	-390.0028686523438	1585.42236328125	908.2044677734375	-288.866455078125	1574.5419921875	862.0844116210938	-296.552490234375	1443.573364257812	788.0938720703125	-290.9946899414062	1226.772827148438	763.4356079101562	-365.0635070800781	1215.307861328125	810.45166015625	-196.9681549072266	969.455322265625	817.5986328125	-273.8289184570312	942.8574829101562	779.3524780273438	-274.8214416503906	1110.507934570312	759.892333984375	-189.7029113769531	776.5284423828125	845.3058471679688	-245.2674560546875	867.5084838867188	784.5751953125	-180.2444305419922	879.01708984375	810.30078125	-396.7109375	1590.008178710938	1197.050415039062	-424.7778015136719	1517.595458984375	1256.630615234375	-416.6884765625	1224.218872070312	1297.06884765625	-404.0684509277344	1217.092407226562	1201.14599609375	-217.2893676757812	1026.886352539062	1335.298950195312	-289.6282348632812	990.76708984375	1350.401733398438	-381.0663146972656	1157.346313476562	1322.919677734375	-135.7973327636719	849.1300048828125	1340.036010742188	-160.9642181396484	932.5997924804688	1357.954956054688	-227.9119873046875	906.8677368164062	1372.485107421875	-381.2519226074219	1789.162841796875	1084.29052734375	-189.8531951904297	1838.448364257812	987.8596801757812	-219.5861968994141	1855.7392578125	1113.05908203125	-357.8634948730469	1774.701782226562	950.5869750976562	-240.16162109375	1042.550048828125	871.43212890625	-309.3033447265625	1042.058471679688	1231.225708007812	-217.4780731201172	1114.013671875	1202.5810546875	-154.0322113037109	1114.12060546875	945.4762573242188	-127.1913070678711	545.4654541015625	949.9157104492188	-169.235107421875	688.328369140625	905.765869140625	-281.4056701660156	50.01296997070312	881.2901611328125	-232.8505401611328	302.7584228515625	875.69677734375	-96.24578857421875	61.21584320068359	1018.302368164062	-180.2896270751953	54.46393585205078	1020.277465820312	-160.4398651123047	51.07956695556641	908.8977661132812	-369.6241455078125	49.44690704345703	911.291015625	-300.3446044921875	548.9259643554688	1198.60107421875	-285.5888671875	829.2694091796875	1230.704345703125	-351.974609375	28.39547920227051	1138.27197265625	-321.4728088378906	414.8191833496094	1199.864501953125	-114.5668182373047	51.79489898681641	1170.723754882812	-157.0954284667969	51.61905670166016	1109.352172851562	-233.0096282958984	40.67190170288086	1205.729125976562	-386.1599426269531	34.67210388183594	1074.395874023438	
639	6.38	-398.5111083984375	1129.117797851562	1080.388305664062	-362.7111511230469	1126.963623046875	949.00927734375	-388.0388793945312	1161.41845703125	1012.049621582031	-185.8667297363281	1371.1416015625	1075.568481445312	-424.8870239257812	1310.642456054688	1014.46923828125	-408.6813049316406	1605.16455078125	1009.454223632812	-227.6429138183594	1503.901733398438	1062.262451171875	-471.1393432617188	1420.083740234375	1081.676147460938	-388.6701965332031	1585.131591796875	909.1603393554688	-287.4526062011719	1574.386840820312	863.20751953125	-294.8159484863281	1443.405639648438	789.2138061523438	-288.9378051757812	1226.493896484375	764.7338256835938	-363.1603088378906	1215.033935546875	811.50439453125	-194.9066619873047	969.2965087890625	819.5065307617188	-271.5803527832031	942.6265258789062	780.9844360351562	-272.6863708496094	1110.238525390625	761.368408203125	-187.6335906982422	776.4357299804688	847.50830078125	-243.0032043457031	867.2916870117188	786.4215698242188	-178.0934600830078	878.8672485351562	812.4119873046875	-396.0127868652344	1589.55712890625	1198.009521484375	-423.9808959960938	1517.00927734375	1257.433349609375	-414.9425354003906	1223.59375	1297.709106445312	-402.6041564941406	1216.631591796875	1201.838256835938	-215.2668304443359	1026.301635742188	1334.941284179688	-287.5247497558594	990.1873168945312	1350.406372070312	-379.1705322265625	1156.754150390625	1323.382202148438	-133.7576293945312	848.5699462890625	1339.0419921875	-158.8083648681641	932.0079956054688	1357.190795898438	-225.6547393798828	906.2605590820312	1372.133422851562	-380.3555603027344	1788.8759765625	1085.456665039062	-188.9147186279297	1838.325439453125	989.2093505859375	-218.7587585449219	1855.52685546875	1114.413818359375	-356.8807373046875	1774.5380859375	951.76513671875	-238.1735992431641	1042.480590820312	872.6577758789062	-307.8456726074219	1041.84228515625	1232.233032226562	-216.1076965332031	1113.87646484375	1203.842041015625	-152.2699279785156	1114.1552734375	946.8505859375	-127.1534423828125	545.3157348632812	950.2413330078125	-168.7769470214844	688.1134643554688	906.3060302734375	-276.5287475585938	48.56935882568359	884.2603149414062	-230.180419921875	301.3822326660156	877.4647216796875	-90.52186584472656	59.77231216430664	1020.724670410156	-174.6499176025391	53.09149551391602	1023.162658691406	-155.1992797851562	50.33955001831055	911.4737548828125	-364.4865417480469	47.42850112915039	914.7313232421875	-299.5882263183594	548.7343139648438	1199.078125	-284.1487121582031	829.0470581054688	1231.420532226562	-351.9465026855469	28.46815299987793	1138.216186523438	-320.8623657226562	414.6557922363281	1200.097534179688	-114.6899871826172	51.65793991088867	1170.768920898438	-157.0356750488281	51.33166122436523	1109.380126953125	-233.046630859375	40.67846298217773	1205.743041992188	-385.9070434570312	34.56098175048828	1074.469970703125	
640	6.390000000000001	-396.8268737792969	1128.907470703125	1081.181762695312	-360.8265380859375	1126.820068359375	949.9067993164062	-386.2728881835938	1161.108276367188	1012.912231445312	-184.7022552490234	1371.055541992188	1076.81591796875	-423.4669494628906	1310.251831054688	1015.089538574219	-407.6107788085938	1604.820678710938	1010.210083007812	-226.5671081542969	1503.744873046875	1063.400024414062	-470.0938720703125	1419.640625	1082.139282226562	-387.3296203613281	1584.820922851562	909.9686279296875	-286.0018310546875	1574.199829101562	864.2211303710938	-293.0010986328125	1443.206176757812	790.2237548828125	-286.760498046875	1226.181030273438	765.91064453125	-361.1500244140625	1214.711059570312	812.3966674804688	-192.7324676513672	969.105712890625	821.2758178710938	-269.2250671386719	942.37255859375	782.480224609375	-270.4226379394531	1109.942993164062	762.7200927734375	-185.4237670898438	776.3156127929688	849.4998779296875	-240.6188049316406	867.056396484375	788.0963745117188	-175.8200988769531	878.7047119140625	814.3536987304688	-395.4168090820312	1589.076904296875	1198.8193359375	-423.3276977539062	1516.376220703125	1258.06103515625	-413.3341369628906	1222.922485351562	1298.1484375	-401.2069702148438	1216.138916015625	1202.34912109375	-213.5383148193359	1025.54150390625	1334.508056640625	-285.7567443847656	989.4794921875	1350.271118164062	-377.4711303710938	1156.106567382812	1323.66259765625	-132.1536712646484	847.779296875	1338.017578125	-157.0419006347656	931.1878051757812	1356.392456054688	-223.8279113769531	905.4700927734375	1371.671508789062	-379.5055236816406	1788.576416015625	1086.494873046875	-188.0048675537109	1838.206787109375	990.4644165039062	-217.9931182861328	1855.305786132812	1115.67724609375	-355.9163208007812	1774.368530273438	952.8230590820312	-236.2089996337891	1042.381591796875	873.8416748046875	-306.3681640625	1041.62353515625	1233.192504882812	-214.7259674072266	1113.7412109375	1205.054565429688	-150.4934539794922	1114.181396484375	948.1612548828125	-127.0991592407227	545.140380859375	950.3711547851562	-168.3808441162109	687.8883056640625	906.6537475585938	-272.4637451171875	47.54066467285156	886.7977905273438	-227.8759765625	300.1985168457031	879	-85.30919647216797	57.66930389404297	1022.535583496094	-169.6427764892578	51.4575080871582	1025.499267578125	-150.6754760742188	49.56095504760742	913.4426879882812	-360.1287231445312	45.96989440917969	917.8170776367188	-298.8796691894531	548.5477294921875	1199.513671875	-282.7210998535156	828.8252563476562	1232.080078125	-351.9305114746094	28.52522850036621	1138.164428710938	-320.3191223144531	414.5009155273438	1200.3115234375	-114.8103866577148	51.51763916015625	1170.794311523438	-157.0039978027344	51.04899215698242	1109.400634765625	-233.0809020996094	40.68572998046875	1205.751098632812	-385.7219543457031	34.47724914550781	1074.498046875	
